<svg xmlns="http://www.w3.org/2000/svg" xmlns:xlink="http://www.w3.org/1999/xlink" width="2000" zoomAndPan="magnify" viewBox="0 0 1500 1499.999933" height="2000" preserveAspectRatio="xMidYMid meet" version="1.0"><defs><clipPath id="9680a8d638"><path d="M 32 216 L 1463 216 L 1463 1284.734375 L 32 1284.734375 Z M 32 216 " clip-rule="nonzero"/></clipPath></defs><g clip-path="url(#9680a8d638)"><path fill="#3f826d" d="M 1459.957031 223.542969 C 1371.425781 280.273438 1285.761719 341.871094 1203.820312 408.054688 C 913.304688 642.414062 666.050781 947.257812 484.121094 1273.300781 C 480.109375 1280.460938 418.222656 1283.039062 389.574219 1283.898438 C 358.058594 1284.757812 292.449219 1284.1875 289.296875 1278.457031 C 203.917969 1130.332031 118.253906 982.496094 32.875 834.375 C 30.867188 830.933594 58.371094 825.207031 61.238281 824.632812 C 84.160156 819.761719 107.652344 817.183594 130.859375 814.890625 C 154.066406 812.597656 227.410156 809.449219 230.5625 815.175781 C 285.859375 910.871094 340.867188 1006.5625 396.164062 1101.96875 C 416.789062 1070.453125 437.707031 1039.511719 459.480469 1009.140625 C 676.9375 703.152344 953.128906 439.570312 1268.855469 237.296875 C 1280.601562 229.847656 1306.960938 226.984375 1320.714844 225.265625 C 1356.527344 220.679688 1429.871094 215.234375 1449.355469 216.953125 C 1451.359375 217.242188 1469.125 217.816406 1459.957031 223.542969 Z M 1459.957031 223.542969 " fill-opacity="1" fill-rule="nonzero"/></g></svg>