<svg xmlns="http://www.w3.org/2000/svg" xmlns:xlink="http://www.w3.org/1999/xlink" width="2000" zoomAndPan="magnify" viewBox="0 0 1500 1499.999933" height="2000" preserveAspectRatio="xMidYMid meet" version="1.0"><defs><clipPath id="20ee1f892a"><path d="M 25 52.003906 L 1476 52.003906 L 1476 1447.753906 L 25 1447.753906 Z M 25 52.003906 " clip-rule="nonzero"/></clipPath></defs><g clip-path="url(#20ee1f892a)"><path fill="#ad343e" d="M 1080.488281 792.449219 C 1028.277344 729.296875 974.40625 667.492188 919.011719 607.128906 C 922.890625 603.035156 926.726562 598.847656 930.605469 594.753906 C 982.949219 539.617188 1036.644531 485.792969 1091.558594 433.230469 C 1146.78125 380.453125 1203.265625 329.023438 1260.96875 278.988281 C 1318.675781 228.953125 1377.601562 180.316406 1437.703125 133.203125 C 1445.109375 127.40625 1452.519531 121.609375 1459.972656 115.855469 C 1469.300781 109.578125 1474.050781 101.34375 1474.269531 91.144531 C 1477.363281 82.773438 1474.792969 75.628906 1466.511719 69.789062 C 1456.617188 62.726562 1445.765625 58.585938 1433.824219 57.410156 C 1418.175781 53.488281 1402.269531 52.09375 1386.011719 53.226562 C 1344.257812 54.621094 1301.632812 61.417969 1262.191406 75.148438 C 1249.941406 79.855469 1237.695312 84.519531 1225.449219 89.226562 C 1206.140625 97.289062 1188.578125 108.140625 1172.800781 121.78125 C 1084.675781 190.078125 998.988281 261.511719 915.960938 335.910156 C 869.9375 377.140625 824.742188 419.328125 780.371094 462.390625 C 728.421875 410.394531 675.292969 359.617188 620.945312 310.109375 C 539.09375 235.492188 454.585938 163.796875 367.636719 95.195312 C 356.828125 86.652344 346.019531 78.199219 335.121094 69.789062 C 325.230469 62.726562 314.375 58.585938 302.433594 57.410156 C 286.789062 53.488281 270.878906 52.09375 254.625 53.226562 C 234.183594 53.488281 213.960938 55.710938 194 59.9375 C 172.46875 63.03125 151.417969 68.085938 130.800781 75.148438 C 118.554688 79.855469 106.308594 84.519531 94.0625 89.226562 C 74.753906 97.289062 57.1875 108.140625 41.410156 121.78125 C 37.054688 127.363281 32.695312 132.941406 28.335938 138.5625 C 22.933594 150.023438 25.15625 159.789062 34.917969 167.851562 C 112.714844 228.171875 188.636719 290.929688 262.511719 356.042969 C 336.386719 421.160156 408.210938 488.539062 477.859375 558.140625 C 513.335938 593.574219 548.203125 629.621094 582.546875 666.140625 C 538.65625 714.128906 495.726562 762.984375 453.84375 812.757812 C 377.964844 902.890625 305.265625 995.808594 235.925781 1091.082031 C 170.726562 1180.648438 108.707031 1272.476562 50.042969 1366.445312 C 42.761719 1378.125 35.527344 1389.804688 28.335938 1401.53125 C 23.367188 1410.332031 24.066406 1417.875 30.429688 1424.148438 C 34.960938 1433.300781 42.808594 1438.707031 53.921875 1440.40625 C 68.433594 1444.894531 83.253906 1446.988281 98.375 1446.683594 C 117.203125 1448.121094 135.945312 1447.378906 154.6875 1444.414062 C 195.917969 1438.664062 238.367188 1429.421875 276.023438 1411.378906 C 300.910156 1399.4375 326.839844 1386.40625 341.746094 1362.042969 C 413.964844 1244.148438 491.414062 1129.4375 573.742188 1018.34375 C 594.925781 989.792969 616.453125 961.507812 638.246094 933.441406 C 666.792969 897.046875 695.90625 861.046875 725.5 825.484375 C 774.578125 882.710938 822.300781 941.113281 868.585938 1000.648438 C 929.035156 1078.355469 987.046875 1157.984375 1042.484375 1239.355469 C 1047.628906 1246.894531 1052.726562 1254.476562 1057.828125 1262.0625 C 1091.996094 1313.230469 1125.164062 1365.050781 1157.328125 1417.480469 C 1160.464844 1426.9375 1166.65625 1432.996094 1175.808594 1435.65625 C 1186.964844 1442.324219 1199.253906 1445.765625 1212.679688 1446.027344 C 1230.636719 1448.078125 1248.546875 1448.078125 1266.417969 1445.941406 C 1287.46875 1444.984375 1308.257812 1442.019531 1328.785156 1436.964844 C 1342.734375 1433.128906 1356.679688 1429.335938 1370.625 1425.5 C 1394.117188 1418.136719 1416.476562 1408.15625 1437.65625 1395.601562 L 1460.015625 1378.867188 C 1471 1370.453125 1476.140625 1359.558594 1475.488281 1346.179688 C 1414.820312 1247.15625 1350.578125 1150.3125 1283.066406 1055.824219 C 1218.695312 965.691406 1151.09375 877.871094 1080.535156 792.492188 Z M 1080.488281 792.449219 " fill-opacity="1" fill-rule="nonzero"/></g></svg>